<svg width="19" height="19" viewBox="0 0 19 19" fill="none" xmlns="http://www.w3.org/2000/svg">
<g clip-path="url(#clip0_205_1460)">
<path d="M17.0991 8.77223C17.5105 8.42344 17.2886 7.75127 16.7504 7.71589L11.9841 7.40253C11.7532 7.38735 11.5516 7.24073 11.466 7.02572L9.66894 2.51096C9.46826 2.00682 8.75469 2.00682 8.55402 2.51095L6.75691 7.02575C6.67133 7.24074 6.46975 7.38736 6.23885 7.40256L1.47812 7.71589C0.940188 7.75129 0.718234 8.42303 1.12918 8.77196L4.78949 11.8799C4.96423 12.0283 5.03916 12.2633 4.98256 12.4854L3.78182 17.1986C3.64786 17.7244 4.22517 18.1438 4.68383 17.8539L8.79089 15.2578C8.9867 15.1341 9.23625 15.1341 9.43206 15.2578L13.5392 17.8539C13.9978 18.1438 14.5751 17.7244 14.4412 17.1986L13.2405 12.4857C13.1839 12.2634 13.2589 12.0283 13.4339 11.88L17.0991 8.77223Z" fill="#FB4E4E"/>
</g>
<defs>
<clipPath id="clip0_205_1460">
<rect width="18.2302" height="18.2302" fill="white" transform="translate(0 0.769775)"/>
</clipPath>
</defs>
</svg>
